# MagicaVoxel @ Ephtracy

# group
o 

# material
mtllib Farm3(noLight).mtl
usemtl palette

# normals
vn -1 0 0
vn 1 0 0
vn 0 0 1
vn 0 0 -1
vn 0 -1 0
vn 0 1 0

# texcoords
vt 0.0410156 0.5
vt 0.986328 0.5

# verts
v -0.9 0 0.5
v -0.9 0 -0.2
v -0.9 0 -0.4
v -0.9 0 -0.9
v -0.9 0.1 0.5
v -0.9 0.1 -0.2
v -0.9 0.1 -0.4
v -0.9 0.1 -0.5
v -0.9 0.1 -0.8
v -0.9 0.1 -0.9
v -0.9 0.2 -0.5
v -0.9 0.2 -0.6
v -0.9 0.2 -0.7
v -0.9 0.2 -0.8
v -0.9 0.3 -0.6
v -0.9 0.3 -0.7
v -0.8 0 -0.2
v -0.8 0 -0.3
v -0.8 0.1 -0.2
v -0.8 0.1 -0.3
v -0.8 0.1 -0.4
v -0.8 0.1 -0.5
v -0.8 0.1 -0.8
v -0.8 0.1 -0.9
v -0.8 0.2 -0.4
v -0.8 0.2 -0.5
v -0.8 0.2 -0.8
v -0.8 0.2 -0.9
v -0.7 0 -0.5
v -0.7 0 -0.6
v -0.7 0 -0.7
v -0.7 0 -0.8
v -0.7 0.2 -0.4
v -0.7 0.2 -0.5
v -0.7 0.2 -0.6
v -0.7 0.2 -0.7
v -0.7 0.2 -0.8
v -0.7 0.2 -0.9
v -0.7 0.3 -0.4
v -0.7 0.3 -0.5
v -0.7 0.3 -0.8
v -0.7 0.3 -0.9
v -0.5 0 -0.5
v -0.5 0 -0.6
v -0.5 0 -0.7
v -0.5 0 -0.8
v -0.5 0.2 -0.5
v -0.5 0.2 -0.6
v -0.5 0.2 -0.7
v -0.5 0.2 -0.8
v -0.5 0.3 -0.6
v -0.5 0.3 -0.7
v -0.3 0 -0.4
v -0.3 0 -0.8
v -0.3 0.1 -0.4
v -0.3 0.1 -0.8
v -0.2 0 -0.3
v -0.2 0 -0.4
v -0.2 0 -0.8
v -0.2 0 -0.9
v -0.2 0.1 -0.3
v -0.2 0.1 -0.4
v -0.2 0.1 -0.8
v -0.2 0.1 -0.9
v -0.1 0 -0.2
v -0.1 0 -0.3
v -0.1 0.1 -0.2
v -0.1 0.1 -0.3
v 0 0 0.4
v 0 0 0.1
v 0 0 -0.1
v 0 0 -0.2
v 0 0.1 0.4
v 0 0.1 0.3
v 0 0.1 0.2
v 0 0.1 0.1
v 0 0.1 -0.1
v 0 0.1 -0.2
v 0 0.2 0.3
v 0 0.2 0.2
v 0.1 0 0.5
v 0.1 0 0.4
v 0.1 0 0.1
v 0.1 0 0
v 0.1 0.1 0.5
v 0.1 0.1 0.4
v 0.1 0.1 0.1
v 0.1 0.1 0
v 0.2 0.1 0.5
v 0.2 0.1 0.3
v 0.2 0.1 0.2
v 0.2 0.1 0
v 0.2 0.2 0.5
v 0.2 0.2 0.3
v 0.2 0.2 0.2
v 0.2 0.2 0
v 0.3 0 0.3
v 0.3 0 0.2
v 0.3 0.2 0.3
v 0.3 0.2 0.2
v -0.8 0 -0.5
v -0.8 0 -0.6
v -0.8 0 -0.7
v -0.8 0 -0.8
v -0.8 0.2 -0.5
v -0.8 0.2 -0.6
v -0.8 0.2 -0.7
v -0.8 0.2 -0.8
v -0.8 0.3 -0.6
v -0.8 0.3 -0.7
v -0.6 0 -0.5
v -0.6 0 -0.6
v -0.6 0 -0.7
v -0.6 0 -0.8
v -0.6 0.2 -0.4
v -0.6 0.2 -0.5
v -0.6 0.2 -0.6
v -0.6 0.2 -0.7
v -0.6 0.2 -0.8
v -0.6 0.2 -0.9
v -0.6 0.3 -0.4
v -0.6 0.3 -0.5
v -0.6 0.3 -0.8
v -0.6 0.3 -0.9
v -0.5 0.1 -0.4
v -0.5 0.1 -0.5
v -0.5 0.1 -0.8
v -0.5 0.1 -0.9
v -0.5 0.2 -0.4
v -0.5 0.2 -0.5
v -0.5 0.2 -0.8
v -0.5 0.2 -0.9
v -0.4 0 -0.2
v -0.4 0 -0.3
v -0.4 0 -0.4
v -0.4 0 -0.9
v -0.4 0.1 -0.2
v -0.4 0.1 -0.3
v -0.4 0.1 -0.4
v -0.4 0.1 -0.5
v -0.4 0.1 -0.8
v -0.4 0.1 -0.9
v -0.4 0.2 -0.5
v -0.4 0.2 -0.6
v -0.4 0.2 -0.7
v -0.4 0.2 -0.8
v -0.4 0.3 -0.6
v -0.4 0.3 -0.7
v -0.3 0 -0.1
v -0.3 0 -0.2
v -0.3 0.1 -0.1
v -0.3 0.1 -0.2
v -0.2 0 0.5
v -0.2 0 0.4
v -0.2 0 0
v -0.2 0 -0.1
v -0.2 0.1 0.5
v -0.2 0.1 0.4
v -0.2 0.1 0
v -0.2 0.1 -0.1
v -0.1 0 0.4
v -0.1 0 0
v -0.1 0.1 0.4
v -0.1 0.1 0
v 0.2 0 0.3
v 0.2 0 0.2
v 0.2 0.2 0.3
v 0.2 0.2 0.2
v 0.3 0.1 0.5
v 0.3 0.1 0.3
v 0.3 0.1 0.2
v 0.3 0.1 0
v 0.3 0.2 0.5
v 0.3 0.2 0.3
v 0.3 0.2 0.2
v 0.3 0.2 0
v 0.4 0 0.5
v 0.4 0 0.4
v 0.4 0 0.1
v 0.4 0 0
v 0.4 0 -0.1
v 0.4 0 -0.2
v 0.4 0.1 0.5
v 0.4 0.1 0.4
v 0.4 0.1 0.1
v 0.4 0.1 0
v 0.4 0.1 -0.1
v 0.4 0.1 -0.2
v 0.5 0 0.4
v 0.5 0 0.1
v 0.5 0 -0.2
v 0.5 0 -0.9
v 0.5 0.1 0.4
v 0.5 0.1 0.3
v 0.5 0.1 0.2
v 0.5 0.1 0.1
v 0.5 0.1 -0.2
v 0.5 0.1 -0.9
v 0.5 0.2 0.3
v 0.5 0.2 0.2
v -0.9 0 0.5
v -0.9 0.1 0.5
v -0.2 0 0.5
v -0.2 0.1 0.5
v 0.1 0 0.5
v 0.1 0.1 0.5
v 0.2 0.1 0.5
v 0.2 0.2 0.5
v 0.3 0.1 0.5
v 0.3 0.2 0.5
v 0.4 0 0.5
v 0.4 0.1 0.5
v -0.2 0 0.4
v -0.2 0.1 0.4
v -0.1 0 0.4
v -0.1 0.1 0.4
v 0 0 0.4
v 0 0.1 0.4
v 0.1 0 0.4
v 0.1 0.1 0.4
v 0.4 0 0.4
v 0.4 0.1 0.4
v 0.5 0 0.4
v 0.5 0.1 0.4
v 0 0.1 0.3
v 0 0.2 0.3
v 0.2 0.1 0.3
v 0.2 0.2 0.3
v 0.3 0.1 0.3
v 0.3 0.2 0.3
v 0.5 0.1 0.3
v 0.5 0.2 0.3
v 0.2 0 0.2
v 0.2 0.2 0.2
v 0.3 0 0.2
v 0.3 0.2 0.2
v 0 0 -0.1
v 0 0.1 -0.1
v 0.4 0 -0.1
v 0.4 0.1 -0.1
v -0.1 0 -0.2
v -0.1 0.1 -0.2
v 0 0 -0.2
v 0 0.1 -0.2
v 0.4 0 -0.2
v 0.4 0.1 -0.2
v 0.5 0 -0.2
v 0.5 0.1 -0.2
v -0.2 0 -0.3
v -0.2 0.1 -0.3
v -0.1 0 -0.3
v -0.1 0.1 -0.3
v -0.9 0 -0.4
v -0.9 0.1 -0.4
v -0.8 0.1 -0.4
v -0.8 0.2 -0.4
v -0.7 0.2 -0.4
v -0.7 0.3 -0.4
v -0.6 0.2 -0.4
v -0.6 0.3 -0.4
v -0.5 0.1 -0.4
v -0.5 0.2 -0.4
v -0.4 0 -0.4
v -0.4 0.1 -0.4
v -0.3 0 -0.4
v -0.3 0.1 -0.4
v -0.2 0 -0.4
v -0.2 0.1 -0.4
v -0.9 0.1 -0.5
v -0.9 0.2 -0.5
v -0.8 0.1 -0.5
v -0.8 0.2 -0.5
v -0.5 0.1 -0.5
v -0.5 0.2 -0.5
v -0.4 0.1 -0.5
v -0.4 0.2 -0.5
v -0.9 0.2 -0.6
v -0.9 0.3 -0.6
v -0.8 0 -0.6
v -0.8 0.2 -0.6
v -0.8 0.3 -0.6
v -0.7 0 -0.6
v -0.7 0.2 -0.6
v -0.6 0 -0.6
v -0.6 0.2 -0.6
v -0.5 0 -0.6
v -0.5 0.2 -0.6
v -0.5 0.3 -0.6
v -0.4 0.2 -0.6
v -0.4 0.3 -0.6
v -0.8 0 -0.8
v -0.8 0.2 -0.8
v -0.7 0 -0.8
v -0.7 0.2 -0.8
v -0.7 0.3 -0.8
v -0.6 0 -0.8
v -0.6 0.2 -0.8
v -0.6 0.3 -0.8
v -0.5 0 -0.8
v -0.5 0.2 -0.8
v 0.2 0 0.3
v 0.2 0.2 0.3
v 0.3 0 0.3
v 0.3 0.2 0.3
v 0 0.1 0.2
v 0 0.2 0.2
v 0.2 0.1 0.2
v 0.2 0.2 0.2
v 0.3 0.1 0.2
v 0.3 0.2 0.2
v 0.5 0.1 0.2
v 0.5 0.2 0.2
v 0 0 0.1
v 0 0.1 0.1
v 0.1 0 0.1
v 0.1 0.1 0.1
v 0.4 0 0.1
v 0.4 0.1 0.1
v 0.5 0 0.1
v 0.5 0.1 0.1
v -0.2 0 0
v -0.2 0.1 0
v -0.1 0 0
v -0.1 0.1 0
v 0.1 0 0
v 0.1 0.1 0
v 0.2 0.1 0
v 0.2 0.2 0
v 0.3 0.1 0
v 0.3 0.2 0
v 0.4 0 0
v 0.4 0.1 0
v -0.3 0 -0.1
v -0.3 0.1 -0.1
v -0.2 0 -0.1
v -0.2 0.1 -0.1
v -0.9 0 -0.2
v -0.9 0.1 -0.2
v -0.8 0 -0.2
v -0.8 0.1 -0.2
v -0.4 0 -0.2
v -0.4 0.1 -0.2
v -0.3 0 -0.2
v -0.3 0.1 -0.2
v -0.8 0 -0.3
v -0.8 0.1 -0.3
v -0.4 0 -0.3
v -0.4 0.1 -0.3
v -0.8 0 -0.5
v -0.8 0.2 -0.5
v -0.7 0 -0.5
v -0.7 0.2 -0.5
v -0.7 0.3 -0.5
v -0.6 0 -0.5
v -0.6 0.2 -0.5
v -0.6 0.3 -0.5
v -0.5 0 -0.5
v -0.5 0.2 -0.5
v -0.9 0.2 -0.7
v -0.9 0.3 -0.7
v -0.8 0 -0.7
v -0.8 0.2 -0.7
v -0.8 0.3 -0.7
v -0.7 0 -0.7
v -0.7 0.2 -0.7
v -0.6 0 -0.7
v -0.6 0.2 -0.7
v -0.5 0 -0.7
v -0.5 0.2 -0.7
v -0.5 0.3 -0.7
v -0.4 0.2 -0.7
v -0.4 0.3 -0.7
v -0.9 0.1 -0.8
v -0.9 0.2 -0.8
v -0.8 0.1 -0.8
v -0.8 0.2 -0.8
v -0.5 0.1 -0.8
v -0.5 0.2 -0.8
v -0.4 0.1 -0.8
v -0.4 0.2 -0.8
v -0.3 0 -0.8
v -0.3 0.1 -0.8
v -0.2 0 -0.8
v -0.2 0.1 -0.8
v -0.9 0 -0.9
v -0.9 0.1 -0.9
v -0.8 0.1 -0.9
v -0.8 0.2 -0.9
v -0.7 0.2 -0.9
v -0.7 0.3 -0.9
v -0.6 0.2 -0.9
v -0.6 0.3 -0.9
v -0.5 0.1 -0.9
v -0.5 0.2 -0.9
v -0.4 0 -0.9
v -0.4 0.1 -0.9
v -0.2 0 -0.9
v -0.2 0.1 -0.9
v 0.5 0 -0.9
v 0.5 0.1 -0.9
v -0.9 0 0.5
v -0.2 0 0.5
v 0.1 0 0.5
v 0.4 0 0.5
v -0.2 0 0.4
v -0.1 0 0.4
v 0 0 0.4
v 0.1 0 0.4
v 0.4 0 0.4
v 0.5 0 0.4
v 0.2 0 0.3
v 0.3 0 0.3
v 0.2 0 0.2
v 0.3 0 0.2
v 0 0 0.1
v 0.1 0 0.1
v 0.4 0 0.1
v 0.5 0 0.1
v -0.2 0 0
v -0.1 0 0
v 0.1 0 0
v 0.4 0 0
v -0.3 0 -0.1
v -0.2 0 -0.1
v 0 0 -0.1
v 0.4 0 -0.1
v -0.9 0 -0.2
v -0.8 0 -0.2
v -0.4 0 -0.2
v -0.3 0 -0.2
v -0.1 0 -0.2
v 0 0 -0.2
v 0.4 0 -0.2
v 0.5 0 -0.2
v -0.8 0 -0.3
v -0.4 0 -0.3
v -0.2 0 -0.3
v -0.1 0 -0.3
v -0.9 0 -0.4
v -0.4 0 -0.4
v -0.3 0 -0.4
v -0.2 0 -0.4
v -0.8 0 -0.5
v -0.7 0 -0.5
v -0.6 0 -0.5
v -0.5 0 -0.5
v -0.8 0 -0.6
v -0.7 0 -0.6
v -0.6 0 -0.6
v -0.5 0 -0.6
v -0.8 0 -0.7
v -0.7 0 -0.7
v -0.6 0 -0.7
v -0.5 0 -0.7
v -0.8 0 -0.8
v -0.7 0 -0.8
v -0.6 0 -0.8
v -0.5 0 -0.8
v -0.3 0 -0.8
v -0.2 0 -0.8
v -0.9 0 -0.9
v -0.4 0 -0.9
v -0.2 0 -0.9
v 0.5 0 -0.9
v -0.9 0.1 0.5
v -0.2 0.1 0.5
v 0.1 0.1 0.5
v 0.2 0.1 0.5
v 0.3 0.1 0.5
v 0.4 0.1 0.5
v -0.2 0.1 0.4
v -0.1 0.1 0.4
v 0 0.1 0.4
v 0.1 0.1 0.4
v 0.4 0.1 0.4
v 0.5 0.1 0.4
v 0 0.1 0.3
v 0.2 0.1 0.3
v 0.3 0.1 0.3
v 0.5 0.1 0.3
v 0 0.1 0.2
v 0.2 0.1 0.2
v 0.3 0.1 0.2
v 0.5 0.1 0.2
v 0 0.1 0.1
v 0.1 0.1 0.1
v 0.4 0.1 0.1
v 0.5 0.1 0.1
v -0.2 0.1 0
v -0.1 0.1 0
v 0.1 0.1 0
v 0.2 0.1 0
v 0.3 0.1 0
v 0.4 0.1 0
v -0.3 0.1 -0.1
v -0.2 0.1 -0.1
v 0 0.1 -0.1
v 0.4 0.1 -0.1
v -0.9 0.1 -0.2
v -0.8 0.1 -0.2
v -0.4 0.1 -0.2
v -0.3 0.1 -0.2
v -0.1 0.1 -0.2
v 0 0.1 -0.2
v 0.4 0.1 -0.2
v 0.5 0.1 -0.2
v -0.8 0.1 -0.3
v -0.4 0.1 -0.3
v -0.2 0.1 -0.3
v -0.1 0.1 -0.3
v -0.9 0.1 -0.4
v -0.8 0.1 -0.4
v -0.5 0.1 -0.4
v -0.4 0.1 -0.4
v -0.3 0.1 -0.4
v -0.2 0.1 -0.4
v -0.9 0.1 -0.5
v -0.8 0.1 -0.5
v -0.5 0.1 -0.5
v -0.4 0.1 -0.5
v -0.9 0.1 -0.8
v -0.8 0.1 -0.8
v -0.5 0.1 -0.8
v -0.4 0.1 -0.8
v -0.3 0.1 -0.8
v -0.2 0.1 -0.8
v -0.9 0.1 -0.9
v -0.8 0.1 -0.9
v -0.5 0.1 -0.9
v -0.4 0.1 -0.9
v -0.2 0.1 -0.9
v 0.5 0.1 -0.9
v 0.2 0.2 0.5
v 0.3 0.2 0.5
v 0 0.2 0.3
v 0.2 0.2 0.3
v 0.3 0.2 0.3
v 0.5 0.2 0.3
v 0 0.2 0.2
v 0.2 0.2 0.2
v 0.3 0.2 0.2
v 0.5 0.2 0.2
v 0.2 0.2 0
v 0.3 0.2 0
v -0.8 0.2 -0.4
v -0.7 0.2 -0.4
v -0.6 0.2 -0.4
v -0.5 0.2 -0.4
v -0.9 0.2 -0.5
v -0.8 0.2 -0.5
v -0.7 0.2 -0.5
v -0.6 0.2 -0.5
v -0.5 0.2 -0.5
v -0.4 0.2 -0.5
v -0.9 0.2 -0.6
v -0.8 0.2 -0.6
v -0.7 0.2 -0.6
v -0.6 0.2 -0.6
v -0.5 0.2 -0.6
v -0.4 0.2 -0.6
v -0.9 0.2 -0.7
v -0.8 0.2 -0.7
v -0.7 0.2 -0.7
v -0.6 0.2 -0.7
v -0.5 0.2 -0.7
v -0.4 0.2 -0.7
v -0.9 0.2 -0.8
v -0.8 0.2 -0.8
v -0.7 0.2 -0.8
v -0.6 0.2 -0.8
v -0.5 0.2 -0.8
v -0.4 0.2 -0.8
v -0.8 0.2 -0.9
v -0.7 0.2 -0.9
v -0.6 0.2 -0.9
v -0.5 0.2 -0.9
v -0.7 0.3 -0.4
v -0.6 0.3 -0.4
v -0.7 0.3 -0.5
v -0.6 0.3 -0.5
v -0.9 0.3 -0.6
v -0.8 0.3 -0.6
v -0.5 0.3 -0.6
v -0.4 0.3 -0.6
v -0.9 0.3 -0.7
v -0.8 0.3 -0.7
v -0.5 0.3 -0.7
v -0.4 0.3 -0.7
v -0.7 0.3 -0.8
v -0.6 0.3 -0.8
v -0.7 0.3 -0.9
v -0.6 0.3 -0.9

# faces
f 5/1/1 2/1/1 1/1/1
f 6/1/1 2/1/1 5/1/1
f 7/2/1 4/2/1 3/2/1
f 8/2/1 4/2/1 7/2/1
f 9/2/1 4/2/1 8/2/1
f 10/2/1 4/2/1 9/2/1
f 11/2/1 9/2/1 8/2/1
f 12/2/1 9/2/1 11/2/1
f 13/2/1 9/2/1 12/2/1
f 14/2/1 9/2/1 13/2/1
f 15/2/1 13/2/1 12/2/1
f 16/2/1 13/2/1 15/2/1
f 19/1/1 18/1/1 17/1/1
f 20/1/1 18/1/1 19/1/1
f 25/2/1 22/2/1 21/2/1
f 26/2/1 22/2/1 25/2/1
f 27/2/1 24/2/1 23/2/1
f 28/2/1 24/2/1 27/2/1
f 34/2/1 30/2/1 29/2/1
f 35/2/1 30/2/1 34/2/1
f 36/2/1 32/2/1 31/2/1
f 37/2/1 32/2/1 36/2/1
f 39/2/1 34/2/1 33/2/1
f 40/2/1 34/2/1 39/2/1
f 41/2/1 38/2/1 37/2/1
f 42/2/1 38/2/1 41/2/1
f 47/2/1 44/2/1 43/2/1
f 48/2/1 44/2/1 47/2/1
f 49/2/1 46/2/1 45/2/1
f 50/2/1 46/2/1 49/2/1
f 51/2/1 49/2/1 48/2/1
f 52/2/1 49/2/1 51/2/1
f 55/1/1 54/1/1 53/1/1
f 56/1/1 54/1/1 55/1/1
f 61/1/1 58/1/1 57/1/1
f 62/1/1 58/1/1 61/1/1
f 63/1/1 60/1/1 59/1/1
f 64/1/1 60/1/1 63/1/1
f 67/1/1 66/1/1 65/1/1
f 68/1/1 66/1/1 67/1/1
f 73/2/1 70/2/1 69/2/1
f 74/2/1 70/2/1 73/2/1
f 75/2/1 70/2/1 74/2/1
f 76/2/1 70/2/1 75/2/1
f 77/1/1 72/1/1 71/1/1
f 78/1/1 72/1/1 77/1/1
f 79/2/1 75/2/1 74/2/1
f 80/2/1 75/2/1 79/2/1
f 85/2/1 82/2/1 81/2/1
f 86/2/1 82/2/1 85/2/1
f 87/2/1 84/2/1 83/2/1
f 88/2/1 84/2/1 87/2/1
f 93/2/1 90/2/1 89/2/1
f 94/2/1 90/2/1 93/2/1
f 95/2/1 92/2/1 91/2/1
f 96/2/1 92/2/1 95/2/1
f 99/2/1 98/2/1 97/2/1
f 100/2/1 98/2/1 99/2/1
f 101/2/2 102/2/2 105/2/2
f 105/2/2 102/2/2 106/2/2
f 103/2/2 104/2/2 107/2/2
f 107/2/2 104/2/2 108/2/2
f 106/2/2 107/2/2 109/2/2
f 109/2/2 107/2/2 110/2/2
f 111/2/2 112/2/2 116/2/2
f 116/2/2 112/2/2 117/2/2
f 113/2/2 114/2/2 118/2/2
f 118/2/2 114/2/2 119/2/2
f 115/2/2 116/2/2 121/2/2
f 121/2/2 116/2/2 122/2/2
f 119/2/2 120/2/2 123/2/2
f 123/2/2 120/2/2 124/2/2
f 125/2/2 126/2/2 129/2/2
f 129/2/2 126/2/2 130/2/2
f 127/2/2 128/2/2 131/2/2
f 131/2/2 128/2/2 132/2/2
f 133/1/2 134/1/2 137/1/2
f 137/1/2 134/1/2 138/1/2
f 135/2/2 136/2/2 139/2/2
f 139/2/2 136/2/2 140/2/2
f 140/2/2 136/2/2 141/2/2
f 141/2/2 136/2/2 142/2/2
f 140/2/2 141/2/2 143/2/2
f 143/2/2 141/2/2 144/2/2
f 144/2/2 141/2/2 145/2/2
f 145/2/2 141/2/2 146/2/2
f 144/2/2 145/2/2 147/2/2
f 147/2/2 145/2/2 148/2/2
f 149/1/2 150/1/2 151/1/2
f 151/1/2 150/1/2 152/1/2
f 153/1/2 154/1/2 157/1/2
f 157/1/2 154/1/2 158/1/2
f 155/1/2 156/1/2 159/1/2
f 159/1/2 156/1/2 160/1/2
f 161/1/2 162/1/2 163/1/2
f 163/1/2 162/1/2 164/1/2
f 165/2/2 166/2/2 167/2/2
f 167/2/2 166/2/2 168/2/2
f 169/2/2 170/2/2 173/2/2
f 173/2/2 170/2/2 174/2/2
f 171/2/2 172/2/2 175/2/2
f 175/2/2 172/2/2 176/2/2
f 177/2/2 178/2/2 183/2/2
f 183/2/2 178/2/2 184/2/2
f 179/2/2 180/2/2 185/2/2
f 185/2/2 180/2/2 186/2/2
f 181/1/2 182/1/2 187/1/2
f 187/1/2 182/1/2 188/1/2
f 189/2/2 190/2/2 193/2/2
f 193/2/2 190/2/2 194/2/2
f 194/2/2 190/2/2 195/2/2
f 195/2/2 190/2/2 196/2/2
f 191/1/2 192/1/2 197/1/2
f 197/1/2 192/1/2 198/1/2
f 194/2/2 195/2/2 199/2/2
f 199/2/2 195/2/2 200/2/2
f 203/1/3 202/1/3 201/1/3
f 204/1/3 202/1/3 203/1/3
f 207/2/3 206/2/3 205/2/3
f 209/2/3 207/2/3 205/2/3
f 209/2/3 208/2/3 207/2/3
f 210/2/3 208/2/3 209/2/3
f 211/2/3 209/2/3 205/2/3
f 212/2/3 209/2/3 211/2/3
f 215/1/3 214/1/3 213/1/3
f 216/1/3 214/1/3 215/1/3
f 219/2/3 218/2/3 217/2/3
f 220/2/3 218/2/3 219/2/3
f 223/2/3 222/2/3 221/2/3
f 224/2/3 222/2/3 223/2/3
f 227/2/3 226/2/3 225/2/3
f 228/2/3 226/2/3 227/2/3
f 231/2/3 230/2/3 229/2/3
f 232/2/3 230/2/3 231/2/3
f 235/2/3 234/2/3 233/2/3
f 236/2/3 234/2/3 235/2/3
f 239/1/3 238/1/3 237/1/3
f 240/1/3 238/1/3 239/1/3
f 243/1/3 242/1/3 241/1/3
f 244/1/3 242/1/3 243/1/3
f 247/1/3 246/1/3 245/1/3
f 248/1/3 246/1/3 247/1/3
f 251/1/3 250/1/3 249/1/3
f 252/1/3 250/1/3 251/1/3
f 255/2/3 254/2/3 253/2/3
f 257/2/3 256/2/3 255/2/3
f 259/2/3 257/2/3 255/2/3
f 259/2/3 258/2/3 257/2/3
f 260/2/3 258/2/3 259/2/3
f 261/2/3 255/2/3 253/2/3
f 261/2/3 259/2/3 255/2/3
f 262/2/3 259/2/3 261/2/3
f 263/2/3 261/2/3 253/2/3
f 264/2/3 261/2/3 263/2/3
f 267/1/3 266/1/3 265/1/3
f 268/1/3 266/1/3 267/1/3
f 271/2/3 270/2/3 269/2/3
f 272/2/3 270/2/3 271/2/3
f 275/2/3 274/2/3 273/2/3
f 276/2/3 274/2/3 275/2/3
f 280/2/3 278/2/3 277/2/3
f 281/2/3 278/2/3 280/2/3
f 282/2/3 280/2/3 279/2/3
f 283/2/3 280/2/3 282/2/3
f 286/2/3 285/2/3 284/2/3
f 287/2/3 285/2/3 286/2/3
f 289/2/3 288/2/3 287/2/3
f 290/2/3 288/2/3 289/2/3
f 293/2/3 292/2/3 291/2/3
f 294/2/3 292/2/3 293/2/3
f 297/2/3 295/2/3 294/2/3
f 298/2/3 295/2/3 297/2/3
f 299/2/3 297/2/3 296/2/3
f 300/2/3 297/2/3 299/2/3
f 301/2/4 302/2/4 303/2/4
f 303/2/4 302/2/4 304/2/4
f 305/2/4 306/2/4 307/2/4
f 307/2/4 306/2/4 308/2/4
f 309/2/4 310/2/4 311/2/4
f 311/2/4 310/2/4 312/2/4
f 313/2/4 314/2/4 315/2/4
f 315/2/4 314/2/4 316/2/4
f 317/2/4 318/2/4 319/2/4
f 319/2/4 318/2/4 320/2/4
f 321/1/4 322/1/4 323/1/4
f 323/1/4 322/1/4 324/1/4
f 325/2/4 326/2/4 327/2/4
f 325/2/4 327/2/4 329/2/4
f 327/2/4 328/2/4 329/2/4
f 329/2/4 328/2/4 330/2/4
f 325/2/4 329/2/4 331/2/4
f 331/2/4 329/2/4 332/2/4
f 333/1/4 334/1/4 335/1/4
f 335/1/4 334/1/4 336/1/4
f 337/1/4 338/1/4 339/1/4
f 339/1/4 338/1/4 340/1/4
f 341/1/4 342/1/4 343/1/4
f 343/1/4 342/1/4 344/1/4
f 345/1/4 346/1/4 347/1/4
f 347/1/4 346/1/4 348/1/4
f 349/2/4 350/2/4 351/2/4
f 351/2/4 350/2/4 352/2/4
f 352/2/4 353/2/4 355/2/4
f 355/2/4 353/2/4 356/2/4
f 354/2/4 355/2/4 357/2/4
f 357/2/4 355/2/4 358/2/4
f 359/2/4 360/2/4 362/2/4
f 362/2/4 360/2/4 363/2/4
f 361/2/4 362/2/4 364/2/4
f 364/2/4 362/2/4 365/2/4
f 366/2/4 367/2/4 368/2/4
f 368/2/4 367/2/4 369/2/4
f 369/2/4 370/2/4 371/2/4
f 371/2/4 370/2/4 372/2/4
f 373/2/4 374/2/4 375/2/4
f 375/2/4 374/2/4 376/2/4
f 377/2/4 378/2/4 379/2/4
f 379/2/4 378/2/4 380/2/4
f 381/1/4 382/1/4 383/1/4
f 383/1/4 382/1/4 384/1/4
f 385/2/4 386/2/4 387/2/4
f 387/2/4 388/2/4 389/2/4
f 387/2/4 389/2/4 391/2/4
f 389/2/4 390/2/4 391/2/4
f 391/2/4 390/2/4 392/2/4
f 385/2/4 387/2/4 393/2/4
f 387/2/4 391/2/4 393/2/4
f 393/2/4 391/2/4 394/2/4
f 385/2/4 393/2/4 395/2/4
f 395/2/4 393/2/4 396/2/4
f 397/1/4 398/1/4 399/1/4
f 399/1/4 398/1/4 400/1/4
f 405/1/5 402/1/5 401/1/5
f 408/2/5 404/2/5 403/2/5
f 409/2/5 404/2/5 408/2/5
f 411/2/5 408/2/5 407/2/5
f 411/2/5 410/2/5 409/2/5
f 411/2/5 409/2/5 408/2/5
f 412/2/5 410/2/5 411/2/5
f 413/2/5 411/2/5 407/2/5
f 414/2/5 410/2/5 412/2/5
f 415/2/5 413/2/5 407/2/5
f 415/2/5 414/2/5 413/2/5
f 416/2/5 414/2/5 415/2/5
f 417/2/5 410/2/5 414/2/5
f 417/2/5 414/2/5 416/2/5
f 418/2/5 410/2/5 417/2/5
f 419/1/5 406/1/5 405/1/5
f 419/1/5 405/1/5 401/1/5
f 420/1/5 406/1/5 419/1/5
f 421/2/5 417/2/5 416/2/5
f 422/2/5 417/2/5 421/2/5
f 423/1/5 419/1/5 401/1/5
f 424/1/5 419/1/5 423/1/5
f 427/1/5 423/1/5 401/1/5
f 428/1/5 423/1/5 427/1/5
f 429/1/5 423/1/5 428/1/5
f 430/1/5 423/1/5 429/1/5
f 432/1/5 426/1/5 425/1/5
f 433/1/5 426/1/5 432/1/5
f 435/1/5 429/1/5 428/1/5
f 436/1/5 429/1/5 435/1/5
f 438/1/5 433/1/5 432/1/5
f 438/1/5 434/1/5 433/1/5
f 438/1/5 432/1/5 431/1/5
f 442/1/5 438/1/5 437/1/5
f 443/2/5 440/2/5 439/2/5
f 444/2/5 440/2/5 443/2/5
f 445/2/5 440/2/5 444/2/5
f 446/2/5 440/2/5 445/2/5
f 447/2/5 443/2/5 439/2/5
f 448/2/5 445/2/5 444/2/5
f 449/2/5 445/2/5 448/2/5
f 450/2/5 440/2/5 446/2/5
f 451/2/5 449/2/5 448/2/5
f 451/2/5 450/2/5 449/2/5
f 451/2/5 447/2/5 439/2/5
f 451/2/5 448/2/5 447/2/5
f 452/2/5 450/2/5 451/2/5
f 453/2/5 450/2/5 452/2/5
f 454/2/5 440/2/5 450/2/5
f 454/2/5 450/2/5 453/2/5
f 455/2/5 451/2/5 439/2/5
f 456/2/5 453/2/5 452/2/5
f 457/2/5 453/2/5 456/2/5
f 458/2/5 440/2/5 454/2/5
f 459/1/5 442/1/5 441/1/5
f 460/1/5 438/1/5 442/1/5
f 460/1/5 442/1/5 459/1/5
f 461/2/5 458/2/5 457/2/5
f 461/2/5 455/2/5 439/2/5
f 461/2/5 457/2/5 456/2/5
f 461/2/5 456/2/5 455/2/5
f 462/2/5 440/2/5 458/2/5
f 462/2/5 458/2/5 461/2/5
f 463/1/5 438/1/5 460/1/5
f 464/1/5 434/1/5 438/1/5
f 464/1/5 438/1/5 463/1/5
f 465/1/6 466/1/6 471/1/6
f 467/2/6 468/2/6 474/2/6
f 469/2/6 470/2/6 475/2/6
f 473/2/6 474/2/6 477/2/6
f 474/2/6 468/2/6 478/2/6
f 477/2/6 474/2/6 478/2/6
f 475/2/6 476/2/6 479/2/6
f 469/2/6 475/2/6 479/2/6
f 479/2/6 476/2/6 480/2/6
f 481/2/6 482/2/6 485/2/6
f 485/2/6 482/2/6 486/2/6
f 483/2/6 484/2/6 487/2/6
f 487/2/6 484/2/6 488/2/6
f 471/1/6 472/1/6 489/1/6
f 465/1/6 471/1/6 489/1/6
f 489/1/6 472/1/6 490/1/6
f 486/2/6 482/2/6 491/2/6
f 491/2/6 482/2/6 492/2/6
f 483/2/6 487/2/6 493/2/6
f 493/2/6 487/2/6 494/2/6
f 465/1/6 489/1/6 495/1/6
f 495/1/6 489/1/6 496/1/6
f 465/1/6 495/1/6 499/1/6
f 499/1/6 495/1/6 500/1/6
f 500/1/6 495/1/6 501/1/6
f 501/1/6 495/1/6 502/1/6
f 497/1/6 498/1/6 504/1/6
f 504/1/6 498/1/6 505/1/6
f 500/1/6 501/1/6 507/1/6
f 507/1/6 501/1/6 508/1/6
f 504/1/6 505/1/6 510/1/6
f 505/1/6 506/1/6 510/1/6
f 503/1/6 504/1/6 510/1/6
f 509/1/6 510/1/6 516/1/6
f 511/2/6 512/2/6 517/2/6
f 517/2/6 512/2/6 518/2/6
f 513/2/6 514/2/6 519/2/6
f 519/2/6 514/2/6 520/2/6
f 515/1/6 516/1/6 525/1/6
f 516/1/6 510/1/6 526/1/6
f 525/1/6 516/1/6 526/1/6
f 521/2/6 522/2/6 527/2/6
f 527/2/6 522/2/6 528/2/6
f 523/2/6 524/2/6 529/2/6
f 529/2/6 524/2/6 530/2/6
f 526/1/6 510/1/6 531/1/6
f 510/1/6 506/1/6 532/1/6
f 531/1/6 510/1/6 532/1/6
f 533/2/6 534/2/6 536/2/6
f 536/2/6 534/2/6 537/2/6
f 535/2/6 536/2/6 539/2/6
f 539/2/6 536/2/6 540/2/6
f 537/2/6 538/2/6 541/2/6
f 541/2/6 538/2/6 542/2/6
f 540/2/6 541/2/6 543/2/6
f 543/2/6 541/2/6 544/2/6
f 545/2/6 546/2/6 550/2/6
f 550/2/6 546/2/6 551/2/6
f 547/2/6 548/2/6 552/2/6
f 552/2/6 548/2/6 553/2/6
f 549/2/6 550/2/6 555/2/6
f 555/2/6 550/2/6 556/2/6
f 551/2/6 552/2/6 557/2/6
f 557/2/6 552/2/6 558/2/6
f 553/2/6 554/2/6 559/2/6
f 559/2/6 554/2/6 560/2/6
f 557/2/6 558/2/6 562/2/6
f 558/2/6 559/2/6 562/2/6
f 556/2/6 557/2/6 562/2/6
f 562/2/6 559/2/6 563/2/6
f 563/2/6 559/2/6 564/2/6
f 564/2/6 559/2/6 565/2/6
f 561/2/6 562/2/6 567/2/6
f 567/2/6 562/2/6 568/2/6
f 563/2/6 564/2/6 569/2/6
f 569/2/6 564/2/6 570/2/6
f 565/2/6 566/2/6 571/2/6
f 571/2/6 566/2/6 572/2/6
f 568/2/6 569/2/6 573/2/6
f 573/2/6 569/2/6 574/2/6
f 570/2/6 571/2/6 575/2/6
f 575/2/6 571/2/6 576/2/6
f 577/2/6 578/2/6 579/2/6
f 579/2/6 578/2/6 580/2/6
f 581/2/6 582/2/6 585/2/6
f 585/2/6 582/2/6 586/2/6
f 583/2/6 584/2/6 587/2/6
f 587/2/6 584/2/6 588/2/6
f 589/2/6 590/2/6 591/2/6
f 591/2/6 590/2/6 592/2/6
